<svg width="800" height="600" xmlns="http://www.w3.org/2000/svg">
  <rect width="800" height="600" fill="#F5F5F5"/>
  
  <!-- Title -->
  <text x="400" y="40" font-family="Roboto" font-size="24" font-weight="bold" text-anchor="middle">LinkedPal Moodboard</text>
  
  <!-- Color Swatches -->
  <rect x="50" y="70" width="100" height="100" fill="#1A237E"/>
  <rect x="160" y="70" width="100" height="100" fill="#FFD700"/>
  <rect x="270" y="70" width="100" height="100" fill="#FFFFFF" stroke="#000000" stroke-width="1"/>
  <rect x="380" y="70" width="100" height="100" fill="#4CAF50"/>
  
  <!-- Typography Example -->
  <text x="50" y="220" font-family="Roboto" font-size="18" font-weight="bold">Protect Your Privacy</text>
  <text x="50" y="250" font-family="Roboto" font-size="14">Connect securely with LinkedPal</text>
  
  <!-- Icon Examples -->
  <circle cx="550" cy="120" r="40" fill="#FFD700"/>
  <path d="M540 120 L560 120 M550 110 L550 130 M545 125 A5 5 0 0 0 555 125" stroke="#1A237E" stroke-width="4" fill="none"/>
  
  <circle cx="650" cy="120" r="40" fill="#1A237E"/>
  <rect x="635" y="105" width="30" height="25" fill="none" stroke="#FFD700" stroke-width="4"/>
  <rect x="642" y="115" width="16" height="15" fill="#FFD700"/>
  
  <!-- UI Element Sketches -->
  <rect x="50" y="300" width="200" height="40" rx="20" fill="#1A237E"/>
  <text x="150" y="325" font-family="Roboto" font-size="14" fill="#FFFFFF" text-anchor="middle">Secure Connect</text>
  
  <rect x="300" y="300" width="200" height="100" rx="10" fill="#FFFFFF" stroke="#1A237E" stroke-width="2"/>
  <text x="400" y="340" font-family="Roboto" font-size="14" text-anchor="middle">Privacy Dashboard</text>
  <rect x="320" y="360" width="160" height="20" rx="10" fill="#4CAF50"/>
  
  <!-- Abstract Shapes -->
  <path d="M600 300 Q 650 250, 700 300 T 800 300" stroke="#FFD700" stroke-width="4" fill="none"/>
  <circle cx="750" cy="400" r="80" fill="#1A237E" opacity="0.1"/>
  <rect x="650" y="450" width="120" height="120" fill="#4CAF50" opacity="0.1"/>
  
  <!-- Tagline -->
  <text x="400" y="580" font-family="Roboto" font-size="20" font-weight="bold" text-anchor="middle" fill="#1A237E">LinkedPal: Where Privacy Meets Connection</text>
</svg>
