<svg width="360" height="640" xmlns="http://www.w3.org/2000/svg">
  <!-- сЃўсЃЃсЃђсЃ╝ -->
  <rect x="0" y="0" width="360" height="60" fill="#f0f0f0"/>
  <text x="60" y="40" font-family="Arial, sans-serif" font-size="24" fill="#333">Тќ░УдЈТіЋуе┐</text>
  
  <!-- Тѕ╗сѓІсЃюсѓ┐сЃ│ -->
  <path d="M20 30 L35 15 L35 45 Z" fill="#333"/>
  
  <!-- сѓ│сЃ│сЃєсѓГсѓ╣сЃѕтѕЄТЏ┐ -->
  <rect x="220" y="15" width="130" height="30" rx="15" fill="#e0e0e0"/>
  <rect x="285" y="15" width="65" height="30" rx="15" fill="#1A237E"/>
  <text x="235" y="35" font-family="Arial, sans-serif" font-size="14" fill="#333">уДЂућЪТ┤╗</text>
  <text x="300" y="35" font-family="Arial, sans-serif" font-size="14" fill="#fff">С╗ЋС║І</text>
  
  <!-- ТіЋуе┐сЃєсѓГсѓ╣сЃѕсѓесЃфсѓб -->
  <rect x="20" y="70" width="320" height="250" fill="#fff" stroke="#ddd"/>
  <text x="30" y="100" font-family="Arial, sans-serif" font-size="16" fill="#999">ТіЋуе┐тєЁт«╣сѓњтЁЦтіЏсЂЌсЂдсЂЈсЂасЂЋсЂё...</text>
  
  <!-- сЃАсЃЄсѓБсѓбТи╗С╗ўсЃюсѓ┐сЃ│ -->
  <rect x="20" y="330" width="40" height="40" rx="5" fill="#f0f0f0"/>
  <text x="30" y="360" font-family="Arial, sans-serif" font-size="24" fill="#333">­ЪЊи</text>
  
  <!-- СйЇуй«ТЃЁта▒У┐йтіасЃюсѓ┐сЃ│ -->
  <rect x="70" y="330" width="40" height="40" rx="5" fill="#f0f0f0"/>
  <text x="80" y="360" font-family="Arial, sans-serif" font-size="24" fill="#333">­ЪЊЇ</text>
  
  <!-- сѓ┐сѓ░У┐йтіасЃюсѓ┐сЃ│ -->
  <rect x="120" y="330" width="40" height="40" rx="5" fill="#f0f0f0"/>
  <text x="130" y="360" font-family="Arial, sans-serif" font-size="24" fill="#333">#</text>
  
  <!-- ТіЋуе┐сЃюсѓ┐сЃ│ -->
  <rect x="40" y="390" width="280" height="50" rx="25" fill="#1A237E"/>
  <text x="155" y="425" font-family="Arial, sans-serif" font-size="18" fill="#fff">ТіЋуе┐</text>
  
  <!-- Т│еТёЈТЏИсЂЇ -->
  <text x="30" y="460" font-family="Arial, sans-serif" font-size="14" fill="#666">сЂЊсЂ«ТіЋуе┐сЂ»С╗ЋС║ІсЂ«сѓ│сЃ│сЃєсѓГсѓ╣сЃѕсЂФУАеуц║сЂЋсѓїсЂЙсЂЎ</text>
</svg>
