<svg width="400" height="150" xmlns="http://www.w3.org/2000/svg">
  <defs>
    <linearGradient id="lockGradient" x1="0%" y1="0%" x2="100%" y2="0%">
      <stop offset="0%" style="stop-color:#ff9999"/>
      <stop offset="100%" style="stop-color:#99ff99"/>
    </linearGradient>
  </defs>
  
  <style>
    @keyframes rotateLeft { from { transform: rotate(0deg); } to { transform: rotate(-180deg); } }
    @keyframes rotateRight { from { transform: rotate(-180deg); } to { transform: rotate(0deg); } }
    .lock { fill: #4a4a4a; }
    .lock-left { animation: rotateLeft 4s infinite alternate ease-in-out; }
    .lock-right { animation: rotateRight 4s infinite alternate ease-in-out; }
  </style>

  <rect width="100%" height="100%" fill="#f0f0f0"/>
  <rect x="20" y="20" width="360" height="110" rx="10" fill="url(#lockGradient)"/>
  
  <g transform="translate(70,75) scale(1.5)">
    <path class="lock lock-left" d="M12 1L3 5v6c0 5.55 3.84 10.74 9 12 5.16-1.26 9-6.45 9-12V5l-9-4zm0 10.99h7c-.53 4.12-3.28 7.79-7 8.94V12H5V6.3l7-3.11v8.8z" />
  </g>
  
  <g transform="translate(330,75) scale(1.5)">
    <path class="lock lock-right" d="M12 1L3 5v6c0 5.55 3.84 10.74 9 12 5.16-1.26 9-6.45 9-12V5l-9-4zm0 10.99h7c-.53 4.12-3.28 7.79-7 8.94V12H5V6.3l7-3.11v8.8z" />
  </g>
  
  <text x="70" y="135" text-anchor="middle" font-size="14" fill="#333">低プライバシー</text>
  <text x="330" y="135" text-anchor="middle" font-size="14" fill="#333">高プライバシー</text>
</svg>
