<svg width="360" height="640" xmlns="http://www.w3.org/2000/svg">
  <style>
    @keyframes scan {
      0%, 100% { transform: translateY(0); }
      50% { transform: translateY(200px); }
    }
    @keyframes success {
      0%, 80%, 100% { opacity: 0; }
      85%, 95% { opacity: 1; }
    }
    .scanline {
      animation: scan 2s linear infinite;
    }
    .success-feedback {
      animation: success 10s linear infinite;
    }
  </style>

  <!-- 背景 -->
  <rect width="100%" height="100%" fill="#f0f0f0"/>
  
  <!-- ヘッダー -->
  <rect width="360" height="60" fill="#1A237E"/>
  <text x="20" y="40" font-family="Arial" font-size="20" fill="white">QRコードで人脈を追加</text>
  
  <!-- カメラビューファインダー -->
  <rect x="30" y="100" width="300" height="300" fill="#ffffff" stroke="#1A237E" stroke-width="2"/>
  <rect x="80" y="150" width="200" height="200" fill="none" stroke="#1A237E" stroke-width="2" stroke-dasharray="5,5"/>
  <text x="180" y="260" font-family="Arial" font-size="14" fill="#666666" text-anchor="middle">QRコードを</text>
  <text x="180" y="280" font-family="Arial" font-size="14" fill="#666666" text-anchor="middle">かざしてください</text>
  
  <!-- スキャンライン -->
  <line x1="80" x2="280" y1="150" y2="150" stroke="#4CAF50" stroke-width="2" class="scanline"/>
  
  <!-- スキャン成功フィードバック -->
  <g class="success-feedback">
    <rect x="30" y="100" width="300" height="300" fill="rgba(76, 175, 80, 0.3)"/>
    <circle cx="180" cy="250" r="50" fill="#4CAF50"/>
    <path d="M160 250 L175 265 L200 240" fill="none" stroke="white" stroke-width="5"/>
  </g>
  
  <!-- コンテキスト選択ボタン -->
  <rect x="30" y="420" width="90" height="40" rx="20" fill="#1A237E"/>
  <text x="75" y="445" font-family="Arial" font-size="14" fill="white" text-anchor="middle">仕事</text>
  
  <rect x="135" y="420" width="90" height="40" rx="20" fill="#4CAF50"/>
  <text x="180" y="445" font-family="Arial" font-size="14" fill="white" text-anchor="middle">私生活</text>
  
  <rect x="240" y="420" width="90" height="40" rx="20" fill="#FFC107"/>
  <text x="285" y="445" font-family="Arial" font-size="14" fill="white" text-anchor="middle">両方</text>
  
  <!-- プライバシーに関する注意書き -->
  <text x="180" y="500" font-family="Arial" font-size="12" fill="#666666" text-anchor="middle">QRコードは公共の場で</text>
  <text x="180" y="520" font-family="Arial" font-size="12" fill="#666666" text-anchor="middle">共有しないでください</text>
</svg>